<svg width="102" height="110" viewBox="0 0 102 110" fill="none" xmlns="http://www.w3.org/2000/svg">
<path d="M95.6881 55.9835C97.8432 43.3526 94.9262 30.6473 87.4698 20.1988C80.0374 9.76098 68.9368 2.83423 56.2484 0.688845C43.56 -1.45654 30.7971 1.44728 20.3011 8.86994C13.1804 13.8979 7.66073 20.6258 4.19227 28.3773C2.55395 32.0343 1.38181 35.8981 0.67853 39.9422C-1.44996 52.5838 1.46703 65.289 8.89678 75.7269C13.9609 82.8499 20.706 88.3101 28.4927 91.7629C32.1663 93.3938 36.0717 94.5739 40.1342 95.2714C48.2459 96.6344 56.3709 95.9397 63.8993 93.3275C63.7661 92.4551 63.6648 91.5693 63.6489 90.6915C63.6595 90.6677 63.6462 90.6332 63.6568 90.6093C56.347 93.2612 48.4457 93.9666 40.5764 92.6539C29.0282 90.6968 18.8679 84.5339 11.8431 75.2071C11.5793 74.8863 11.3237 74.5415 11.0706 74.1967C7.5595 69.2722 5.10867 63.8013 3.79002 58.0785C2.48468 52.3319 2.30081 46.3571 3.31044 40.3877C5.35369 28.4621 11.923 18.0216 21.8409 11.0392C31.7481 4.02228 43.8238 1.28021 55.8035 3.31422C59.6609 3.95067 63.3345 5.05916 66.7896 6.59196C74.1634 9.86175 80.5356 15.0409 85.32 21.7502C92.3422 31.602 95.0994 43.623 93.0801 55.5592C92.0518 61.6347 89.8248 67.3257 86.5801 72.3616C87.4965 72.595 88.3676 72.8628 89.2067 73.2076C92.4328 68.0099 94.6305 62.1916 95.6881 55.9835Z" fill="#263238"/>
<path d="M63.6461 90.6889C57.8041 92.5982 50.5262 94.3936 44.1407 94.261C42.8407 94.2345 41.5593 94.1629 40.3712 93.9534C39.1458 93.7571 37.9017 93.4097 36.6789 93.0119C23.9986 88.8962 10.4125 75.5253 10.4125 75.5253C10.4125 75.5253 10.9666 75.3954 11.8404 75.2018C14.9599 74.5521 22.2297 73.1042 24.3928 73.4807C27.1926 73.9395 32.8296 72.8098 33.8578 65.4296C33.8578 65.4296 26.6332 53.2255 30.0591 36.5133C31.5216 29.2073 33.8472 14.8234 49.8709 15.5129L49.8815 15.4891C51.0776 15.5554 52.3243 15.7012 53.6563 15.916C54.9536 16.1441 56.195 16.4331 57.3432 16.7381L57.3459 16.7965C72.6955 21.4002 70.1301 35.7337 69.1125 43.0927C66.7922 60.0038 55.9313 69.1528 55.9313 69.1528C54.4688 76.4588 59.3944 79.3998 62.1942 79.8559C62.9987 80.0097 64.3734 80.5905 65.9238 81.3648C64.9541 83.1416 64.2534 85.096 63.9045 87.1751C63.7073 88.3367 63.6381 89.4664 63.6514 90.6067C63.6434 90.6305 63.6567 90.665 63.6461 90.6889Z" fill="#263238"/>
<path d="M74.0489 108.282C70.8442 106.86 68.0683 104.606 65.9824 101.681C62.9136 97.3796 61.7148 92.1474 62.5992 86.947C63.4863 81.7467 66.3528 77.2013 70.6737 74.1464C74.9946 71.0914 80.2506 69.898 85.4746 70.7784C90.6959 71.6642 95.2645 74.515 98.3334 78.8163C101.4 83.1177 102.601 88.3499 101.717 93.5503C100.829 98.7506 97.9632 103.296 93.6422 106.351C89.3213 109.406 84.0654 110.599 78.8414 109.716C77.1684 109.435 75.5593 108.952 74.0489 108.282ZM89.1801 74.6422C87.8721 74.0615 86.4815 73.6398 85.0323 73.3985C80.5089 72.6348 75.9589 73.669 72.2187 76.3103C68.4785 78.9542 65.9958 82.8923 65.2286 87.3952C64.4613 91.8981 65.5029 96.4276 68.1562 100.151C70.8095 103.874 74.7655 106.343 79.2862 107.107C83.8096 107.871 88.3596 106.836 92.0998 104.195C95.84 101.551 98.3227 97.613 99.09 93.1101C99.8572 88.6071 98.8156 84.0777 96.1623 80.3544C94.3561 77.8219 91.9532 75.8701 89.1801 74.6422Z" fill="#263238"/>
<path d="M81.4068 89.042L81.5027 80.7708L85.9195 81.516L83.2689 89.3576L91.2021 86.9285L91.8681 91.3094L83.5912 91.32L88.3597 98.0028L84.3851 99.9944L81.8384 92.1288L76.8302 98.7188L73.7426 95.5365L80.4504 90.7923L72.6398 88.0661L74.7256 84.1493L81.4068 89.042Z" fill="#263238"/>
</svg>
