<svg width="20" height="20" viewBox="0 0 20 20" fill="none" xmlns="http://www.w3.org/2000/svg">
<path d="M9.15659 3.68683H5.81685C4.48083 3.68683 3.81281 3.68683 3.30252 3.94684C2.85365 4.17554 2.48872 4.54048 2.26001 4.98935C2 5.49964 2 6.16766 2 7.50368V14.1831C2 15.5192 2 16.1872 2.26001 16.6975C2.48872 17.1464 2.85365 17.5113 3.30252 17.74C3.81281 18 4.48083 18 5.81685 18H12.4963C13.8324 18 14.5003 18 15.0107 17.74C15.4596 17.5113 15.8245 17.1464 16.0532 16.6975C16.3132 16.1872 16.3132 15.5192 16.3132 14.1831V10.8434M15.1204 2.49405C15.7791 1.83531 16.8472 1.83531 17.506 2.49406C18.1647 3.1528 18.1647 4.22085 17.506 4.87959L9.90191 12.4837C9.62686 12.7587 9.4893 12.8962 9.32883 12.9946C9.18649 13.0818 9.03135 13.1461 8.86914 13.185C8.68609 13.2289 8.49159 13.2289 8.1026 13.2289H6.77104V11.8974C6.77104 11.5084 6.77104 11.3139 6.81498 11.1309C6.85394 10.9686 6.9182 10.8135 7.00539 10.6712C7.10375 10.5107 11.3153 6.29918 11.5904 6.02413" stroke="#394867" stroke-width="1.5" stroke-linecap="round" stroke-linejoin="round"/>
</svg>
