<svg width="20" height="20" viewBox="0 0 20 20" fill="none" xmlns="http://www.w3.org/2000/svg">
<path d="M2.38379 5.31659C2.3633 4.9348 2.03714 4.64191 1.65529 4.6624C1.27344 4.6829 0.980518 5.00902 1.00101 5.3908L2.38379 5.31659ZM3.27545 1.77801C3.0121 2.05523 3.02338 2.49341 3.30064 2.75672C3.5779 3.02003 4.01614 3.00876 4.2795 2.73154L3.27545 1.77801ZM8.76507 17.2114C9.08883 17.4148 9.51627 17.3174 9.71974 16.9937C9.92321 16.67 9.82563 16.2426 9.50186 16.0391L8.76507 17.2114ZM12.8722 17.4386C12.498 17.3602 12.131 17.6001 12.0526 17.9743C11.9742 18.3485 12.2141 18.7154 12.5884 18.7938L12.8722 17.4386ZM13.363 13.2713L13.7834 12.8287L12.7794 11.8752L12.3589 12.3178L13.363 13.2713ZM15.167 12.6424L16.9307 13.6574L17.6215 12.4575L15.8578 11.4424L15.167 12.6424ZM17.2711 15.7619L15.9597 17.1424L16.9638 18.0959L18.2752 16.7155L17.2711 15.7619ZM6.63722 13.6544C3.05884 9.88754 2.45861 6.71022 2.38379 5.31659L1.00101 5.3908C1.09264 7.09771 1.8175 10.5914 5.63318 14.6079L6.63722 13.6544ZM7.90692 7.52806L8.17174 7.24934L7.16766 6.29581L6.90287 6.57453L7.90692 7.52806ZM8.37973 3.77916L7.21559 2.13292L6.08488 2.93225L7.24901 4.57847L8.37973 3.77916ZM7.4049 7.05129C6.90287 6.57453 6.90223 6.5752 6.90159 6.57588C6.90138 6.57612 6.90073 6.5768 6.90029 6.57726C6.89941 6.5782 6.89851 6.57915 6.89761 6.58013C6.89579 6.58209 6.89391 6.58413 6.89198 6.58626C6.8881 6.59052 6.88399 6.59512 6.87967 6.60009C6.87104 6.61002 6.86155 6.62137 6.8514 6.6342C6.83111 6.65984 6.80815 6.69134 6.78407 6.72897C6.73577 6.80444 6.68339 6.90382 6.63904 7.02845C6.54884 7.28189 6.49969 7.61751 6.56111 8.03664C6.68178 8.86011 7.22143 9.96748 8.63149 11.4517L9.63554 10.4982C8.31751 9.11081 7.99287 8.25635 7.93125 7.83591C7.90153 7.63307 7.93173 7.52619 7.94368 7.49263C7.95039 7.47377 7.95478 7.46852 7.95049 7.47524C7.9484 7.47849 7.94425 7.4846 7.93727 7.49343C7.93377 7.49784 7.92957 7.50293 7.92455 7.50871C7.92204 7.51159 7.91932 7.51465 7.91639 7.51788C7.91492 7.51949 7.9134 7.52114 7.91182 7.52284C7.91103 7.52369 7.91023 7.52455 7.90941 7.52542C7.909 7.52585 7.90838 7.52652 7.90817 7.52673C7.90754 7.52739 7.90692 7.52806 7.4049 7.05129ZM8.63149 11.4517C10.0373 12.9316 11.0992 13.5134 11.9093 13.645C12.3249 13.7124 12.6614 13.6585 12.9162 13.5581C13.0407 13.509 13.1393 13.4513 13.2132 13.3989C13.2501 13.3727 13.2808 13.3478 13.3057 13.3261C13.318 13.3153 13.329 13.3051 13.3385 13.2959C13.3433 13.2913 13.3477 13.2869 13.3517 13.2829C13.3538 13.2808 13.3558 13.2788 13.3576 13.2769C13.3586 13.2759 13.3595 13.275 13.3603 13.2741C13.3608 13.2736 13.3614 13.2729 13.3617 13.2727C13.3623 13.272 13.363 13.2713 12.861 12.7946C12.3589 12.3178 12.3596 12.3172 12.3601 12.3165C12.3604 12.3162 12.361 12.3156 12.3614 12.3151C12.3623 12.3143 12.3631 12.3135 12.3638 12.3126C12.3655 12.311 12.3671 12.3093 12.3686 12.3078C12.3717 12.3047 12.3746 12.3018 12.3774 12.2991C12.383 12.2937 12.388 12.2891 12.3924 12.2852C12.4013 12.2775 12.4079 12.2725 12.4121 12.2695C12.4207 12.2634 12.4199 12.2655 12.408 12.2701C12.3902 12.2771 12.3064 12.3067 12.1312 12.2783C11.7596 12.2179 10.9576 11.89 9.63554 10.4982L8.63149 11.4517ZM7.21559 2.13292C6.27986 0.80967 4.40744 0.586423 3.27545 1.77801L4.2795 2.73154C4.76217 2.22345 5.61189 2.26337 6.08488 2.93225L7.21559 2.13292ZM15.9597 17.1424C15.7021 17.4136 15.4326 17.5588 15.1706 17.5847L15.3067 18.9626C15.9963 18.8945 16.5544 18.5267 16.9638 18.0959L15.9597 17.1424ZM8.17174 7.24934C9.06492 6.30905 9.12816 4.83757 8.37973 3.77916L7.24901 4.57847C7.63873 5.12959 7.57897 5.86284 7.16766 6.29581L8.17174 7.24934ZM16.9307 13.6574C17.6886 14.0936 17.8368 15.1664 17.2711 15.7619L18.2752 16.7155C19.4799 15.4473 19.129 13.325 17.6215 12.4575L16.9307 13.6574ZM13.7834 12.8287C14.1392 12.4542 14.6937 12.37 15.167 12.6424L15.8578 11.4424C14.8437 10.8588 13.586 11.0261 12.7794 11.8752L13.7834 12.8287ZM9.50186 16.0391C8.59373 15.4685 7.62715 14.6964 6.63722 13.6544L5.63318 14.6079C6.69856 15.7294 7.75407 16.5762 8.76507 17.2114L9.50186 16.0391ZM15.1706 17.5847C14.6661 17.6345 13.8676 17.647 12.8722 17.4386L12.5884 18.7938C13.741 19.0351 14.6828 19.0242 15.3067 18.9626L15.1706 17.5847Z" fill="#394867"/>
</svg>
