<svg width="578" height="578" viewBox="0 0 578 578" fill="none" xmlns="http://www.w3.org/2000/svg">
<g clip-path="url(#clip0_69_3721)">
<path d="M305.113 2.33543C485.614 -15.154 485.92 95.639 567.25 198.855C648.579 302.071 665.984 348.868 635.325 467.851C604.665 586.834 501.349 680.107 373.537 627.259C245.725 574.411 172.509 625.161 91.8924 578.232C11.276 531.302 -18.6614 440.633 40.349 333.772C99.3564 226.912 82.5439 23.8984 305.113 2.33543Z" fill="#E4B408"/>
<path opacity="0.7" d="M305.113 2.33543C485.614 -15.154 485.92 95.639 567.25 198.855C648.579 302.071 665.984 348.868 635.325 467.851C604.665 586.834 501.349 680.107 373.537 627.259C245.725 574.411 172.509 625.161 91.8924 578.232C11.276 531.302 -18.6614 440.633 40.349 333.772C99.3564 226.912 82.5439 23.8984 305.113 2.33543Z" fill="white"/>
<path d="M249.797 581.692C248.051 574.282 243.758 568.06 237.704 564.166C231.665 560.271 224.578 559.179 217.767 561.079C210.957 562.978 205.237 567.649 201.658 574.235C199.227 578.699 197.976 583.702 197.976 588.768C197.976 591.159 198.252 593.55 198.805 595.924C200.566 603.334 204.859 609.556 210.898 613.45C215.017 616.11 219.601 617.456 224.258 617.456C226.455 617.456 228.667 617.155 230.85 616.553C235.201 615.334 239.101 612.991 242.274 609.746C242.012 609.302 241.764 608.843 241.56 608.368C241.56 608.353 241.546 608.337 241.546 608.321C238.49 611.535 234.706 613.83 230.486 615.018C224.287 616.743 217.84 615.841 212.252 612.453C212.048 612.342 211.844 612.215 211.641 612.089C208.788 610.252 206.343 607.862 204.408 605.059C202.472 602.241 201.046 599.028 200.217 595.529C198.572 588.531 199.518 581.248 202.909 575.042C206.285 568.82 211.699 564.403 218.131 562.614C220.197 562.028 222.278 561.743 224.345 561.743C228.754 561.743 233.091 563.026 236.976 565.527C242.681 569.2 246.741 575.09 248.4 582.087C249.244 585.65 249.404 589.291 248.909 592.821C249.419 592.726 249.914 592.663 250.408 592.647C250.86 589.038 250.656 585.333 249.797 581.692Z" fill="#263148"/>
<path d="M241.56 608.368C239.072 610.822 235.841 613.561 232.625 615.034C231.97 615.334 231.315 615.604 230.675 615.778C230.02 615.968 229.322 616.078 228.623 616.158C221.376 616.981 211.611 612.975 211.611 612.975C211.611 612.975 211.859 612.77 212.252 612.453C213.663 611.345 216.967 608.796 218.131 608.479C219.63 608.052 222.191 606.073 221.056 601.798C221.056 601.798 214.726 596.89 212.703 586.948C211.801 582.61 209.749 574.203 217.898 570.704V570.688C218.509 570.435 219.164 570.214 219.877 570.008C220.576 569.818 221.26 569.675 221.9 569.564L221.915 569.596C230.602 568.393 232.523 576.831 233.658 581.09C236.278 590.874 232.902 598.489 232.902 598.489C233.804 602.827 236.918 603.239 238.417 602.811C238.854 602.701 239.669 602.685 240.615 602.732C240.527 603.935 240.615 605.17 240.906 606.389C241.066 607.07 241.284 607.703 241.546 608.321C241.546 608.337 241.56 608.353 241.56 608.368Z" fill="#263148"/>
<path d="M232.379 570.222C224.907 561.332 219.382 567.926 219.382 567.926C219.382 567.926 211.622 565.04 209.008 576.746C206.393 588.452 214.013 597.669 207.561 601.551C207.561 601.551 215.772 605.346 227.44 602.089C239.108 598.833 244.625 591.205 244.625 591.205C237.253 591.181 239.851 579.113 232.379 570.222Z" fill="#263148"/>
<path d="M449.315 40.6771C450.492 33.1364 448.899 25.5513 444.825 19.3136C440.765 13.0821 434.701 8.94686 427.77 7.66606C420.838 6.38527 413.866 8.11885 408.133 12.5502C404.243 15.5519 401.228 19.5685 399.333 24.1961C398.438 26.3793 397.798 28.686 397.413 31.1004C396.251 38.6475 397.844 46.2325 401.903 52.4639C404.669 56.7164 408.354 59.9761 412.608 62.0375C414.614 63.0111 416.748 63.7156 418.967 64.132C423.398 64.9458 427.837 64.531 431.949 62.9715C431.877 62.4507 431.821 61.9219 431.813 61.3979C431.818 61.3836 431.811 61.363 431.817 61.3488C427.824 62.932 423.507 63.3531 419.209 62.5694C412.9 61.401 407.35 57.7217 403.512 52.1536C403.368 51.9621 403.229 51.7562 403.09 51.5504C401.172 48.6105 399.833 45.3443 399.113 41.9278C398.4 38.4971 398.3 34.9301 398.851 31.3664C399.967 24.2468 403.556 18.0138 408.974 13.8452C414.386 9.65613 420.983 8.01911 427.527 9.23342C429.634 9.61338 431.641 10.2752 433.528 11.1902C437.556 13.1423 441.037 16.2343 443.651 20.2397C447.487 26.1213 448.993 33.2979 447.89 40.4238C447.328 44.0509 446.112 47.4484 444.339 50.4549C444.84 50.5942 445.316 50.7541 445.774 50.9599C447.537 47.8568 448.737 44.3833 449.315 40.6771Z" fill="#263148"/>
<path d="M431.811 61.3963C428.62 62.5362 424.644 63.608 421.156 63.5288C420.446 63.513 419.746 63.4703 419.097 63.3452C418.427 63.228 417.748 63.0206 417.08 62.7831C410.153 60.326 402.731 52.3436 402.731 52.3436C402.731 52.3436 403.034 52.266 403.511 52.1505C405.215 51.7626 409.186 50.8982 410.368 51.123C411.897 51.3969 414.977 50.7224 415.538 46.3164C415.538 46.3164 411.592 39.0306 413.463 29.0533C414.262 24.6917 415.533 16.1045 424.286 16.5161L424.292 16.5018C424.945 16.5414 425.626 16.6285 426.354 16.7567C427.063 16.8929 427.741 17.0654 428.368 17.2475L428.369 17.2823C436.755 20.0308 435.353 28.5879 434.797 32.9812C433.53 43.0772 427.597 48.5392 427.597 48.5392C426.798 52.9009 429.488 54.6566 431.018 54.929C431.457 55.0208 432.208 55.3675 433.055 55.8298C432.526 56.8905 432.143 58.0573 431.952 59.2986C431.845 59.992 431.807 60.6664 431.814 61.3472C431.81 61.3614 431.817 61.382 431.811 61.3963Z" fill="#263148"/>
<path d="M437.494 71.8991C435.743 71.0505 434.227 69.7048 433.087 67.9586C431.411 65.3906 430.756 62.267 431.239 59.1624C431.724 56.0578 433.29 53.3442 435.65 51.5203C438.01 49.6965 440.882 48.9841 443.735 49.5097C446.588 50.0385 449.083 51.7404 450.76 54.3083C452.435 56.8763 453.091 59.9999 452.608 63.1045C452.123 66.2092 450.558 68.9227 448.197 70.7466C445.837 72.5704 442.966 73.2828 440.112 72.7556C439.198 72.5878 438.319 72.2997 437.494 71.8991ZM445.76 51.8164C445.045 51.4697 444.285 51.218 443.494 51.0739C441.023 50.6179 438.537 51.2354 436.494 52.8122C434.451 54.3907 433.095 56.7417 432.675 59.43C432.256 62.1182 432.825 64.8223 434.275 67.0451C435.724 69.2679 437.885 70.7418 440.355 71.1978C442.826 71.6537 445.311 71.0363 447.355 69.4594C449.398 67.881 450.754 65.53 451.173 62.8417C451.592 60.1535 451.023 57.4494 449.574 55.2266C448.587 53.7146 447.275 52.5494 445.76 51.8164Z" fill="#263148"/>
<path d="M441.513 60.4131L441.566 55.4752L443.978 55.92L442.53 60.6015L446.864 59.1513L447.228 61.7667L442.707 61.7731L445.311 65.7627L443.14 66.9517L441.749 62.2559L439.013 66.1902L437.326 64.2903L440.991 61.458L436.724 59.8305L437.863 57.4921L441.513 60.4131Z" fill="#263148"/>
<path d="M252.213 39.6021L211.128 47.0083C209.622 47.2806 208.198 46.1707 207.949 44.5321L203.824 17.4486C203.574 15.81 204.594 14.26 206.101 13.9893L247.185 6.58315C248.691 6.31084 250.116 7.42066 250.365 9.05926L254.489 36.1428C254.738 37.7814 253.719 39.3298 252.213 39.6021Z" stroke="#263148" stroke-miterlimit="10" stroke-linecap="round" stroke-linejoin="round"/>
<path d="M203.973 18.4349L226.427 29.1071C228.447 30.0666 230.796 29.6438 232.423 28.0258L250.513 10.0456" stroke="#263148" stroke-miterlimit="10" stroke-linecap="round" stroke-linejoin="round"/>
<path d="M211.757 40.0913C215.056 37.2131 218.355 34.3348 221.654 31.4566" stroke="#263148" stroke-miterlimit="10" stroke-linecap="round" stroke-linejoin="round"/>
<path d="M249.567 33.2757C245.591 31.7083 241.614 30.1426 237.639 28.5752" stroke="#263148" stroke-miterlimit="10" stroke-linecap="round" stroke-linejoin="round"/>
<path d="M406.68 602.677L370.689 579.884C369.369 579.048 368.922 577.207 369.691 575.771L382.386 552.045C383.155 550.609 384.847 550.123 386.167 550.959L422.158 573.752C423.478 574.588 423.925 576.429 423.157 577.865L410.461 601.591C409.693 603.027 408 603.513 406.68 602.677Z" stroke="#263148" stroke-miterlimit="10" stroke-linecap="round" stroke-linejoin="round"/>
<path d="M381.924 552.909L392.968 576.706C393.96 578.847 396.019 580.15 398.22 580.033L422.694 578.73" stroke="#263148" stroke-miterlimit="10" stroke-linecap="round" stroke-linejoin="round"/>
<path d="M375.227 574.992C379.456 575.063 383.683 575.135 387.912 575.206" stroke="#263148" stroke-miterlimit="10" stroke-linecap="round" stroke-linejoin="round"/>
<path d="M53.1872 405.07L16.5324 426.574C15.1877 427.363 13.5113 426.816 12.7865 425.354L0.809839 401.191C0.085125 399.728 0.587186 397.904 1.93184 397.116L38.5867 375.611C39.9313 374.823 41.6078 375.369 42.3325 376.832L54.3092 400.995C55.0339 402.456 54.5304 404.281 53.1872 405.07Z" stroke="#263148" stroke-miterlimit="10" stroke-linecap="round" stroke-linejoin="round"/>
<path d="M1.24493 402.071L25.6669 404.242C27.8629 404.436 29.9599 403.208 31.0164 401.104L42.7676 377.711" stroke="#263148" stroke-miterlimit="10" stroke-linecap="round" stroke-linejoin="round"/>
<path d="M15.064 419.809C17.3269 415.922 19.5899 412.036 21.8513 408.149" stroke="#263148" stroke-miterlimit="10" stroke-linecap="round" stroke-linejoin="round"/>
<path d="M48.7981 400.02C44.5692 399.941 40.3417 399.861 36.1127 399.782" stroke="#263148" stroke-miterlimit="10" stroke-linecap="round" stroke-linejoin="round"/>
<path d="M53.1872 405.07L16.5324 426.574C15.1877 427.363 13.5113 426.816 12.7865 425.354L0.809839 401.191C0.085125 399.728 0.587186 397.904 1.93184 397.116L38.5867 375.611C39.9313 374.823 41.6078 375.369 42.3325 376.832L54.3092 400.995C55.0339 402.456 54.5304 404.281 53.1872 405.07Z" stroke="#263148" stroke-miterlimit="10" stroke-linecap="round" stroke-linejoin="round"/>
<path d="M1.24493 402.071L25.6669 404.242C27.8629 404.436 29.9599 403.208 31.0164 401.104L42.7676 377.711" stroke="#263148" stroke-miterlimit="10" stroke-linecap="round" stroke-linejoin="round"/>
<path d="M15.064 419.809C17.3269 415.922 19.5899 412.036 21.8513 408.149" stroke="#263148" stroke-miterlimit="10" stroke-linecap="round" stroke-linejoin="round"/>
<path d="M48.7981 400.02C44.5692 399.941 40.3417 399.861 36.1127 399.782" stroke="#263148" stroke-miterlimit="10" stroke-linecap="round" stroke-linejoin="round"/>
<path d="M70.1016 93.8025V540.34C70.1016 542.858 71.9788 544.884 74.2636 544.884H323.839C326.138 544.884 328.015 542.858 328.015 540.34V93.8025C328.015 88.103 323.737 83.4485 318.498 83.4485H259.051C256.694 83.4485 254.598 85.1425 253.929 87.6122C253.594 88.8471 252.91 89.892 252.008 90.6203C251.105 91.3486 249.985 91.776 248.806 91.776H149.311C146.939 91.776 144.858 90.082 144.188 87.6122C143.854 86.3773 143.17 85.3324 142.253 84.6042C141.351 83.8759 140.23 83.4485 139.051 83.4485H79.6189C74.38 83.4485 70.1016 88.103 70.1016 93.8025Z" fill="#263148" stroke="#263148" stroke-miterlimit="10" stroke-linecap="round" stroke-linejoin="round"/>
<path d="M70.1016 175.453L328.015 175.453V119.564L70.1016 119.564V175.453Z" fill="#E4B408" stroke="#263148" stroke-miterlimit="10" stroke-linecap="round" stroke-linejoin="round"/>
<path d="M70.1016 487.264L328.015 487.264L328.015 175.453L70.1016 175.453L70.1016 487.264Z" fill="white" stroke="#263148" stroke-miterlimit="10" stroke-linecap="round" stroke-linejoin="round"/>
<path d="M198.436 521.805H206.495C209.145 521.805 211.293 519.468 211.293 516.585V507.817C211.293 504.934 209.145 502.597 206.495 502.597H198.436C195.786 502.597 193.638 504.934 193.638 507.817V516.585C193.638 519.468 195.786 521.805 198.436 521.805Z" fill="white" stroke="#263148" stroke-miterlimit="10" stroke-linecap="round" stroke-linejoin="round"/>
<path d="M97.5112 139.577H84.8461" stroke="#263148" stroke-miterlimit="10" stroke-linecap="round" stroke-linejoin="round"/>
<path d="M97.5112 147.145H84.8461" stroke="#263148" stroke-miterlimit="10" stroke-linecap="round" stroke-linejoin="round"/>
<path d="M97.5112 154.712H84.8461" stroke="#263148" stroke-miterlimit="10" stroke-linecap="round" stroke-linejoin="round"/>
<path d="M175.994 207.167H133.392C131.803 207.167 130.513 205.764 130.513 204.035C130.513 202.306 131.803 200.904 133.392 200.904H175.994C177.583 200.904 178.873 202.306 178.873 204.035C178.873 205.766 177.585 207.167 175.994 207.167Z" fill="#263148"/>
<path d="M280.005 214.943H132.05C131.202 214.943 130.515 214.196 130.515 213.273C130.515 212.35 131.202 211.603 132.05 211.603H280.005C280.854 211.603 281.541 212.35 281.541 213.273C281.541 214.196 280.852 214.943 280.005 214.943Z" fill="#263148"/>
<path d="M116.283 221.095C122.716 214.654 123.132 203.758 117.21 196.758C111.289 189.759 101.274 189.307 94.8403 195.749C88.4068 202.191 87.9915 213.087 93.9126 220.086C99.8338 227.085 109.849 227.537 116.283 221.095Z" fill="white" stroke="#263148" stroke-miterlimit="10" stroke-linecap="round" stroke-linejoin="round"/>
<path d="M106.835 225.546C111.292 224.826 116.579 220.793 116.579 220.793C116.579 220.793 112.994 219.194 112.035 219.194C111.076 219.194 109.265 218.429 109.339 215.676C109.339 215.676 112.435 211.679 112.25 205.382C112.168 202.636 112.212 197.256 106.836 196.526V196.509C106.432 196.464 106.008 196.437 105.556 196.437C105.105 196.437 104.681 196.464 104.275 196.509V196.526C98.8995 197.256 98.9417 202.634 98.8617 205.382C98.6768 211.679 101.772 215.676 101.772 215.676C101.846 218.429 100.036 219.194 99.077 219.194C98.118 219.194 94.5323 220.793 94.5323 220.793C94.5323 220.793 99.8178 224.826 104.277 225.546C104.712 225.616 105.143 225.666 105.556 225.666C105.969 225.666 106.4 225.616 106.835 225.546Z" fill="#263148"/>
<path d="M119.272 228.551C122.725 228.551 125.525 225.505 125.525 221.748C125.525 217.991 122.725 214.945 119.272 214.945C115.818 214.945 113.018 217.991 113.018 221.748C113.018 225.505 115.818 228.551 119.272 228.551Z" fill="#E4B408" stroke="#263148" stroke-miterlimit="10" stroke-linecap="round" stroke-linejoin="round"/>
<path d="M118.951 221.354L118.513 218.336H120.027L119.589 221.354L122.095 219.981L122.565 221.536L119.807 222.049L121.775 224.187L120.564 225.156L119.269 222.449L117.973 225.156L116.764 224.187L118.73 222.049L115.972 221.536L116.445 219.981L118.951 221.354Z" fill="#263148"/>
<path d="M113.018 198.654C109.798 192.077 105.556 195.104 105.556 195.104C105.556 195.104 101.314 192.077 98.0933 198.654C94.8728 205.23 98.1355 212.027 93.7217 213.273C93.7217 213.273 98.105 216.921 105.556 216.921C113.007 216.921 117.39 213.273 117.39 213.273C112.976 212.027 116.239 205.23 113.018 198.654Z" fill="#263148"/>
<path d="M108.385 113.502H111.272V107.105H108.385V113.502Z" fill="white"/>
<path d="M103.092 113.503H105.979V104.517H103.092V113.503Z" fill="white"/>
<path d="M97.7982 113.502H100.685V101.928H97.7982V113.502Z" fill="white"/>
<path d="M92.5046 113.503H95.3918V99.3414H92.5046V113.503Z" fill="white"/>
<path d="M293.402 100.636H308.909C309.868 100.636 310.644 101.481 310.644 102.523V110.321C310.644 111.365 309.867 112.209 308.909 112.209H293.402C292.443 112.209 291.668 111.363 291.668 110.321V102.523C291.668 101.479 292.443 100.636 293.402 100.636Z" fill="white"/>
<path d="M287.958 103.055H289.44V109.788H287.958C287.171 109.788 286.534 109.094 286.534 108.238V104.605C286.534 103.75 287.171 103.055 287.958 103.055Z" fill="white"/>
<path d="M310.413 139.599C312.908 142.315 312.908 146.719 310.413 149.434C307.917 152.151 303.868 152.151 301.373 149.434C298.877 146.719 298.877 142.315 301.373 139.599C303.868 136.884 307.915 136.884 310.413 139.599Z" stroke="#263148" stroke-miterlimit="10" stroke-linecap="round" stroke-linejoin="round"/>
<path d="M310.413 149.436L317.116 156.728" stroke="#263148" stroke-miterlimit="10" stroke-linecap="round" stroke-linejoin="round"/>
<path d="M216.14 159.704H186.264C184.737 159.704 183.499 158.357 183.499 156.696V137.593C183.499 135.933 184.737 134.585 186.264 134.585H216.14C217.667 134.585 218.905 135.933 218.905 137.593V156.696C218.905 158.359 217.667 159.704 216.14 159.704Z" fill="#263148" stroke="#E4B408" stroke-miterlimit="10" stroke-linecap="round" stroke-linejoin="round"/>
<path d="M183.501 137.593L198.923 148.492C200.31 149.472 202.097 149.472 203.484 148.492L218.907 137.593" fill="#263148"/>
<path d="M183.501 137.593L198.923 148.492C200.31 149.472 202.097 149.472 203.484 148.492L218.907 137.593" stroke="#E4B408" stroke-miterlimit="10" stroke-linecap="round" stroke-linejoin="round"/>
<path d="M186.821 154.668C189.589 152.977 192.356 151.286 195.124 149.596L186.821 154.668Z" fill="#263148"/>
<path d="M186.821 154.668C189.589 152.977 192.356 151.286 195.124 149.596" stroke="#E4B408" stroke-miterlimit="10" stroke-linecap="round" stroke-linejoin="round"/>
<path d="M215.584 154.668C212.816 152.977 210.05 151.286 207.282 149.596L215.584 154.668Z" fill="#263148"/>
<path d="M215.584 154.668C212.816 152.977 210.05 151.286 207.282 149.596" stroke="#E4B408" stroke-miterlimit="10" stroke-linecap="round" stroke-linejoin="round"/>
<path d="M161.442 262.371H133.392C131.803 262.371 130.513 260.968 130.513 259.239C130.513 257.51 131.803 256.108 133.392 256.108H161.442C163.031 256.108 164.32 257.51 164.32 259.239C164.32 260.968 163.032 262.371 161.442 262.371Z" fill="#263148"/>
<path d="M221.795 270.147H132.05C131.202 270.147 130.515 269.4 130.515 268.477C130.515 267.554 131.202 266.807 132.05 266.807H221.795C222.644 266.807 223.331 267.554 223.331 268.477C223.331 269.4 222.642 270.147 221.795 270.147Z" fill="#263148"/>
<path d="M116.576 275.981C122.843 269.349 122.982 258.446 116.886 251.627C110.79 244.809 100.768 244.658 94.5002 251.29C88.2328 257.922 88.0939 268.825 94.1899 275.644C100.286 282.462 110.309 282.613 116.576 275.981Z" fill="white" stroke="#263148" stroke-miterlimit="10" stroke-linecap="round" stroke-linejoin="round"/>
<path d="M106.835 280.748C111.292 280.028 116.579 275.996 116.579 275.996C116.579 275.996 112.994 274.397 112.035 274.397C111.076 274.397 109.265 273.632 109.339 270.879C109.339 270.879 112.435 266.881 112.25 260.585C112.168 257.838 112.212 252.458 106.836 251.729V251.711C106.432 251.667 106.008 251.64 105.556 251.64C105.105 251.64 104.681 251.667 104.275 251.711V251.729C98.8995 252.458 98.9417 257.836 98.8617 260.585C98.6768 266.883 101.772 270.879 101.772 270.879C101.846 273.632 100.036 274.397 99.077 274.397C98.118 274.397 94.5323 275.996 94.5323 275.996C94.5323 275.996 99.8178 280.028 104.277 280.748C104.712 280.818 105.143 280.869 105.556 280.869C105.969 280.869 106.4 280.818 106.835 280.748Z" fill="#263148"/>
<path d="M119.272 283.753C122.725 283.753 125.525 280.707 125.525 276.95C125.525 273.193 122.725 270.147 119.272 270.147C115.818 270.147 113.018 273.193 113.018 276.95C113.018 280.707 115.818 283.753 119.272 283.753Z" fill="#E4B408" stroke="#263148" stroke-miterlimit="10" stroke-linecap="round" stroke-linejoin="round"/>
<path d="M118.951 276.558L118.513 273.54H120.027L119.589 276.558L122.095 275.185L122.565 276.74L119.807 277.253L121.775 279.392L120.564 280.36L119.269 277.653L117.973 280.36L116.764 279.392L118.73 277.253L115.972 276.74L116.445 275.185L118.951 276.558Z" fill="#263148"/>
<path d="M190.547 317.575H133.392C131.803 317.575 130.513 316.172 130.513 314.443C130.513 312.714 131.803 311.312 133.392 311.312H190.547C192.136 311.312 193.425 312.714 193.425 314.443C193.425 316.172 192.137 317.575 190.547 317.575Z" fill="#263148"/>
<path d="M250.9 325.352H132.05C131.202 325.352 130.515 324.604 130.515 323.681C130.515 322.758 131.202 322.011 132.05 322.011H250.9C251.749 322.011 252.436 322.758 252.436 323.681C252.436 324.603 251.747 325.352 250.9 325.352Z" fill="#263148"/>
<path d="M109.312 335.566C117.804 333.301 123.001 323.976 120.919 314.737C118.837 305.499 110.265 299.846 101.773 302.111C93.2817 304.376 88.0854 313.701 90.1672 322.939C92.2491 332.177 100.821 337.831 109.312 335.566Z" fill="white" stroke="#263148" stroke-miterlimit="10" stroke-linecap="round" stroke-linejoin="round"/>
<path d="M106.835 335.953C111.292 335.232 116.579 331.2 116.579 331.2C116.579 331.2 112.994 329.601 112.035 329.601C111.076 329.601 109.265 328.836 109.34 326.083C109.34 326.083 112.435 322.085 112.25 315.789C112.169 313.042 112.212 307.663 106.836 306.933V306.915C106.432 306.871 106.008 306.844 105.556 306.844C105.105 306.844 104.681 306.871 104.275 306.915V306.933C98.8995 307.663 98.9418 313.041 98.8617 315.789C98.6769 322.087 101.772 326.083 101.772 326.083C101.846 328.836 100.036 329.601 99.0771 329.601C98.1181 329.601 94.5323 331.2 94.5323 331.2C94.5323 331.2 99.8178 335.232 104.277 335.953C104.712 336.022 105.143 336.073 105.556 336.073C105.969 336.073 106.4 336.022 106.835 335.953Z" fill="#263148"/>
<path d="M105.556 305.858C99.8614 305.858 95.8769 310.137 95.1348 325.614C95.1348 325.614 99.3041 327.465 105.556 327.465C111.808 327.465 115.977 325.614 115.977 325.614C115.233 310.137 111.249 305.858 105.556 305.858Z" fill="#263148"/>
<path d="M175.994 372.777H133.392C131.803 372.777 130.513 371.375 130.513 369.646C130.513 367.917 131.803 366.514 133.392 366.514H175.994C177.583 366.514 178.873 367.917 178.873 369.646C178.873 371.376 177.585 372.777 175.994 372.777Z" fill="#263148"/>
<path d="M280.005 380.554H132.05C131.202 380.554 130.515 379.807 130.515 378.884C130.515 377.961 131.202 377.214 132.05 377.214H280.005C280.854 377.214 281.541 377.961 281.541 378.884C281.541 379.807 280.852 380.554 280.005 380.554Z" fill="#263148"/>
<path d="M116.572 386.384C122.84 379.752 122.978 368.848 116.882 362.03C110.786 355.211 100.764 355.06 94.4965 361.692C88.2291 368.324 88.0902 379.228 94.1862 386.046C100.282 392.864 110.305 393.016 116.572 386.384Z" fill="white" stroke="#263148" stroke-miterlimit="10" stroke-linecap="round" stroke-linejoin="round"/>
<path d="M106.835 391.155C111.292 390.435 116.579 386.402 116.579 386.402C116.579 386.402 112.994 384.803 112.035 384.803C111.076 384.803 109.265 384.039 109.339 381.286C109.339 381.286 112.435 377.288 112.25 370.992C112.168 368.245 112.212 362.865 106.836 362.135V362.118C106.432 362.074 106.008 362.047 105.556 362.047C105.105 362.047 104.681 362.074 104.275 362.118V362.135C98.8995 362.865 98.9417 368.243 98.8617 370.992C98.6768 377.29 101.772 381.286 101.772 381.286C101.846 384.039 100.036 384.803 99.077 384.803C98.118 384.803 94.5323 386.402 94.5323 386.402C94.5323 386.402 99.8178 390.435 104.277 391.155C104.712 391.225 105.143 391.275 105.556 391.275C105.969 391.275 106.4 391.226 106.835 391.155Z" fill="#263148"/>
<path d="M119.272 394.16C122.725 394.16 125.525 391.114 125.525 387.357C125.525 383.6 122.725 380.554 119.272 380.554C115.818 380.554 113.018 383.6 113.018 387.357C113.018 391.114 115.818 394.16 119.272 394.16Z" fill="#E4B408" stroke="#263148" stroke-miterlimit="10" stroke-linecap="round" stroke-linejoin="round"/>
<path d="M118.951 386.964L118.513 383.947H120.027L119.589 386.964L122.095 385.592L122.565 387.146L119.807 387.659L121.775 389.798L120.564 390.767L119.269 388.06L117.974 390.767L116.764 389.798L118.73 387.659L115.973 387.146L116.445 385.592L118.951 386.964Z" fill="#263148"/>
<path d="M146.889 427.982H133.392C131.803 427.982 130.513 426.579 130.513 424.85C130.513 423.121 131.803 421.719 133.392 421.719H146.889C148.478 421.719 149.768 423.121 149.768 424.85C149.768 426.579 148.48 427.982 146.889 427.982Z" fill="#263148"/>
<path d="M265.453 435.758H132.05C131.202 435.758 130.515 435.011 130.515 434.088C130.515 433.165 131.202 432.418 132.05 432.418H265.453C266.301 432.418 266.988 433.165 266.988 434.088C266.988 435.011 266.3 435.758 265.453 435.758Z" fill="#263148"/>
<path d="M116.571 441.585C122.838 434.953 122.977 424.05 116.881 417.231C110.785 410.413 100.762 410.262 94.495 416.894C88.2276 423.526 88.0887 434.429 94.1847 441.248C100.281 448.066 110.303 448.217 116.571 441.585Z" fill="white" stroke="#263148" stroke-miterlimit="10" stroke-linecap="round" stroke-linejoin="round"/>
<path d="M106.835 446.359C111.292 445.639 116.579 441.607 116.579 441.607C116.579 441.607 112.994 440.008 112.035 440.008C111.076 440.008 109.265 439.243 109.339 436.49C109.339 436.49 112.435 432.492 112.25 426.196C112.168 423.449 112.212 418.069 106.836 417.339V417.322C106.432 417.278 106.008 417.251 105.556 417.251C105.105 417.251 104.681 417.278 104.275 417.322V417.339C98.8995 418.069 98.9417 423.447 98.8617 426.196C98.6768 432.492 101.772 436.49 101.772 436.49C101.846 439.243 100.036 440.008 99.077 440.008C98.118 440.008 94.5323 441.607 94.5323 441.607C94.5323 441.607 99.8178 445.639 104.277 446.359C104.712 446.429 105.143 446.48 105.556 446.48C105.969 446.48 106.4 446.429 106.835 446.359Z" fill="#263148"/>
<path d="M175.994 483.184H133.392C131.803 483.184 130.513 481.782 130.513 480.053C130.513 478.324 131.803 476.921 133.392 476.921H175.994C177.583 476.921 178.873 478.324 178.873 480.053C178.873 481.783 177.585 483.184 175.994 483.184Z" fill="#263148"/>
<path d="M121.386 484.452C121.386 485.418 121.313 486.352 121.168 487.27H89.9381C89.7926 486.352 89.7198 485.418 89.7198 484.452C89.7198 474.953 96.8069 467.243 105.553 467.243C114.299 467.243 121.386 474.953 121.386 484.452Z" fill="white" stroke="#263148" stroke-miterlimit="10" stroke-linecap="round" stroke-linejoin="round"/>
<path d="M112.247 481.397C112.32 483.692 111.956 485.671 111.447 487.27H99.6592C99.1498 485.671 98.786 483.692 98.8588 481.397C98.9461 478.658 98.9024 473.275 104.272 472.547V472.531C104.68 472.483 105.102 472.452 105.553 472.452C106.004 472.452 106.426 472.483 106.834 472.531V472.547C112.218 473.275 112.174 478.658 112.247 481.397Z" fill="#263148"/>
<path d="M285.478 478.849C297.031 478.849 306.396 468.661 306.396 456.093C306.396 443.524 297.031 433.336 285.478 433.336C273.926 433.336 264.561 443.524 264.561 456.093C264.561 468.661 273.926 478.849 285.478 478.849Z" fill="#E4B408" stroke="#263148" stroke-miterlimit="10" stroke-linecap="round" stroke-linejoin="round"/>
<path d="M294.623 449.215L291.815 446.16L279.178 459.909L281.986 462.964L294.623 449.215Z" fill="#263148"/>
<path d="M277.897 461.287L276.353 466.022L280.705 464.343L277.897 461.287Z" fill="#263148"/>
<path d="M366.296 124.39H438.751C443.977 124.39 448.213 128.998 448.213 134.684V181.644C448.213 187.329 443.977 191.938 438.751 191.938H429.707L438.06 209.172L418.762 191.938H366.297C361.071 191.938 356.835 187.329 356.835 181.644V134.684C356.834 128.998 361.07 124.39 366.296 124.39Z" stroke="#263148" stroke-miterlimit="10" stroke-linecap="round" stroke-linejoin="round"/>
<g opacity="0.5">
<path d="M370.18 143.367H434.867C435.528 143.367 436.065 142.785 436.065 142.064V141.498C436.065 140.779 435.529 140.195 434.867 140.195H370.18C369.519 140.195 368.982 140.777 368.982 141.498V142.064C368.982 142.783 369.518 143.367 370.18 143.367Z" fill="#263148"/>
<path d="M370.18 154.043H434.867C435.528 154.043 436.065 153.46 436.065 152.74V152.173C436.065 151.454 435.529 150.87 434.867 150.87H370.18C369.519 150.87 368.982 151.453 368.982 152.173V152.74C368.982 153.46 369.518 154.043 370.18 154.043Z" fill="#263148"/>
<path d="M370.18 164.718H434.867C435.528 164.718 436.065 164.136 436.065 163.415V162.848C436.065 162.13 435.529 161.546 434.867 161.546H370.18C369.519 161.546 368.982 162.128 368.982 162.848V163.415C368.982 164.136 369.518 164.718 370.18 164.718Z" fill="#263148"/>
<path d="M400.752 175.395H434.867C435.528 175.395 436.065 174.813 436.065 174.092V173.525C436.065 172.805 435.529 172.223 434.867 172.223H400.752C400.09 172.223 399.554 172.805 399.554 173.525V174.092C399.554 174.811 400.09 175.395 400.752 175.395Z" fill="#263148"/>
</g>
<path d="M456.719 430.102C456.719 430.102 456.705 430.133 456.69 430.197C455.992 431.811 445.921 455.195 433.653 477.66C430.437 483.566 427.076 489.392 423.685 494.759C416.307 506.443 408.827 515.894 402.613 518.839C382.254 528.481 393.823 452.931 393.823 452.931C393.823 452.931 404.345 439.965 412.872 421.584C415.303 416.36 418.126 410.296 421.08 404.216C423.35 399.546 425.679 394.876 427.963 390.554C433.13 380.738 437.946 372.822 440.871 371.27C444.073 369.561 448.497 387.213 451.844 403.631C454.653 417.294 456.719 430.102 456.719 430.102Z" fill="white" stroke="#263148" stroke-miterlimit="10" stroke-linecap="round" stroke-linejoin="round"/>
<path d="M456.719 430.102C456.719 430.102 456.705 430.133 456.69 430.197C455.992 431.811 445.921 455.195 433.653 477.661C437.35 441.706 433.886 417.658 433.886 417.658C426.013 404.707 421.08 404.216 421.08 404.216C423.35 399.546 425.679 394.876 427.963 390.554L438.383 379.962L451.844 403.631C454.653 417.294 456.719 430.102 456.719 430.102Z" fill="#263148"/>
<path d="M550.619 188.319C569.009 202.802 585.101 253.978 578.96 287.225C572.819 320.472 604.407 330.043 604.292 382.448C604.26 397.081 562.65 456.539 514.29 424.806C465.931 393.072 452.499 377.475 457.103 345.607C461.709 313.739 461.901 292.861 453.17 266.139C444.438 239.416 517.24 162.032 550.619 188.319Z" fill="#263148"/>
<path d="M621.366 412.734L611.092 420.317C608.545 437.527 603.947 456.477 597.194 473.75C584.257 506.791 572.804 526.486 568.802 532.993C568.802 532.993 568.802 533.009 568.788 533.025C567.798 534.608 567.26 535.399 567.26 535.399L578 579.206C578 579.206 506.343 660.249 427.221 648.55L432.504 602.653L439.62 540.972L441.934 520.913C441.934 520.913 440.959 506.522 439.402 488.806C438.339 476.6 437 462.81 435.487 451.063C435.429 450.588 435.4 450.066 435.414 449.464C435.531 442.055 440.871 426.476 440.871 426.476C436.36 418.703 432.082 411.547 428.662 405.895C424.063 398.311 421.022 393.435 421.022 393.435C421.022 393.435 437.073 372.03 437.932 369.592C442.996 355.169 460.692 357.861 460.692 357.861C460.692 357.861 462.22 355.977 465.465 355.074C473.876 352.779 497.786 371.017 510.84 371.159C523.879 371.302 587.983 352.525 587.983 352.525L594.502 355.074C594.502 355.074 603.335 353.934 610.233 367.835C613.551 374.5 621.366 412.734 621.366 412.734Z" fill="#E4B408"/>
<path opacity="0.3" d="M506.314 593.281C506.314 593.281 461.783 609.635 432.504 602.653L439.62 540.972C445.965 547.764 482.754 586.33 506.314 593.281Z" fill="black" fill-opacity="0.7"/>
<path opacity="0.3" d="M440.871 426.476C436.36 418.703 432.082 411.547 428.662 405.895C431.689 397.963 436.186 390.648 442.414 391.076C442.414 391.076 438.063 412.101 440.871 426.476Z" fill="black" fill-opacity="0.7"/>
<path opacity="0.3" d="M585.29 412.734C577.301 415.615 559.198 424.339 559.198 424.339L555.854 420.11L568.727 400.029C568.727 400.029 559.663 404.033 555.854 409.044C552.045 414.054 551.038 425.262 550.894 425.216C550.75 425.17 547.553 413.431 547.553 413.431C547.553 413.431 546.144 419.064 545.425 428.301C545.013 433.597 550.362 442.234 555.002 448.642L546.916 495.487C536.627 488.679 526.338 481.872 516.05 475.08C511.204 471.882 506.372 468.684 501.541 465.486C500.347 464.694 498.95 463.998 497.859 463.048C496.171 461.559 495.065 459.628 493.1 458.346C490.903 456.905 488.4 456.066 485.911 455.417C476.714 453.058 467.022 452.947 457.781 455.132C453.881 456.05 449.879 457.364 446.008 456.367C442.021 455.338 438.82 451.997 435.414 449.464C435.4 450.066 435.429 450.588 435.487 451.063C437 462.81 438.339 476.6 439.402 488.806C439.955 488.806 440.508 488.79 441.061 488.79C442.138 488.774 443.229 488.774 444.262 489.075C446.489 489.74 450.913 501.551 452.441 503.419C463.602 516.971 482.273 539.88 495.836 550.519C493.129 542.603 478.97 514.897 479.232 506.126C482.273 507.234 484.645 509.783 487.09 512.047C494.454 518.918 503.243 523.7 511.917 528.417C518.305 531.901 524.708 535.368 531.097 538.851C536.889 542.001 544.587 546.972 551.281 545.025C556.768 543.426 563.68 537.442 568.06 533.658C568.308 533.452 568.555 533.23 568.788 533.025C568.802 533.009 568.802 532.993 568.802 532.993C572.804 526.486 584.257 506.791 597.194 473.75C603.947 456.477 608.545 437.527 611.092 420.317L621.366 412.734C621.366 412.734 593.28 409.853 585.29 412.734Z" fill="black" fill-opacity="0.7"/>
<path d="M427.224 648.558L441.932 520.919C441.932 520.919 439.168 479.871 435.482 451.06C434.656 444.602 440.87 426.478 440.87 426.478C430.291 408.266 421.026 393.438 421.026 393.438C421.026 393.438 437.076 372.032 437.931 369.591C442.997 355.166 460.697 357.861 460.697 357.861C460.697 357.861 462.221 355.97 465.46 355.081C473.875 352.774 497.786 371.02 510.835 371.161C523.884 371.304 587.979 352.517 587.979 352.517L594.503 355.081C594.503 355.081 603.331 353.934 610.239 367.841C613.551 374.508 621.369 412.736 621.369 412.736L611.097 420.311C608.543 437.527 603.945 456.479 597.19 473.744C581.07 514.941 567.252 535.402 567.252 535.402L577.999 579.201" stroke="#263148" stroke-miterlimit="10" stroke-linecap="round" stroke-linejoin="round"/>
<path d="M570.421 397.613C570.421 397.613 552.186 423.237 552.63 428.061C553.074 432.885 561.522 437.698 561.522 437.698" stroke="#263148" stroke-miterlimit="10" stroke-linecap="round" stroke-linejoin="round"/>
<path d="M546.913 407.926C546.913 407.926 548.448 419.26 548.448 428.061C548.448 436.863 570.421 451.476 570.421 451.476" stroke="#263148" stroke-miterlimit="10" stroke-linecap="round" stroke-linejoin="round"/>
<path d="M440.869 426.478C440.869 426.478 439.342 392.599 444.191 386.757" stroke="#263148" stroke-miterlimit="10" stroke-linecap="round" stroke-linejoin="round"/>
<path d="M435.483 399.283C435.483 399.283 437.997 416.82 440.642 420.161" stroke="#263148" stroke-miterlimit="10" stroke-linecap="round" stroke-linejoin="round"/>
<path d="M517.359 412.736C517.359 412.736 485.888 434.775 456.719 437.698" stroke="#263148" stroke-miterlimit="10" stroke-linecap="round" stroke-linejoin="round"/>
<path d="M456.719 509.098C456.719 509.098 492.029 555.446 515.057 561.709" stroke="#263148" stroke-miterlimit="10" stroke-linecap="round" stroke-linejoin="round"/>
<path d="M567.254 535.403C567.254 535.403 559.243 529.09 561.522 525.357" stroke="#263148" stroke-miterlimit="10" stroke-linecap="round" stroke-linejoin="round"/>
<path d="M546.913 573.071C546.913 573.071 496.82 603.462 471.205 600.958" stroke="#263148" stroke-miterlimit="10" stroke-linecap="round" stroke-linejoin="round"/>
<path d="M412.501 475.683C405.97 449.565 395.281 441.038 388.219 413.074C386.126 404.791 379.918 379.53 379.918 379.53C379.918 379.53 387.842 352.635 371.999 337.29C371.999 337.29 367.654 337.29 360.185 355.937C354.978 368.94 357.883 381.669 357.883 381.669C357.883 381.669 362.812 414.485 363.886 423.311C366.473 444.575 372.101 480.183 379.918 498.052C388.276 517.156 397.1 521.433 403.709 517.498" fill="white"/>
<path d="M412.501 475.683C405.97 449.565 395.281 441.038 388.219 413.074C386.126 404.791 379.918 379.53 379.918 379.53C379.918 379.53 387.842 352.635 371.999 337.29C371.999 337.29 367.654 337.29 360.185 355.937C354.978 368.94 357.883 381.669 357.883 381.669C357.883 381.669 362.812 414.485 363.886 423.311C366.473 444.575 372.101 480.183 379.918 498.052C388.276 517.156 397.1 521.433 403.709 517.498" stroke="#263148" stroke-miterlimit="10" stroke-linecap="round" stroke-linejoin="round"/>
<path d="M382.669 373.803L399.569 379.903C401.356 380.404 404.883 377.158 404.727 375.159L399.714 310.899C399.512 308.304 397.824 306.133 395.505 305.484L376.782 301.061C374.995 300.56 370.499 302.886 370.654 304.886L378.46 368.389C378.662 370.984 380.351 373.156 382.669 373.803Z" fill="#E4B408"/>
<mask id="mask0_69_3721" style="mask-type:luminance" maskUnits="userSpaceOnUse" x="370" y="300" width="35" height="80">
<path d="M382.669 373.803L399.569 379.903C401.356 380.404 404.883 377.158 404.727 375.159L399.714 310.899C399.512 308.304 397.824 306.133 395.505 305.484L376.782 301.061C374.995 300.56 370.499 302.886 370.654 304.886L378.46 368.389C378.662 370.984 380.351 373.156 382.669 373.803Z" fill="white"/>
</mask>
<g mask="url(#mask0_69_3721)">
<path opacity="0.3" d="M382.669 373.803L399.569 379.903C401.356 380.404 404.883 377.158 404.727 375.159L399.714 310.899C399.512 308.304 397.824 306.133 395.505 305.484L376.782 301.061C374.995 300.56 370.499 302.886 370.654 304.886L378.46 368.389C378.662 370.984 380.351 373.156 382.669 373.803Z" fill="black" fill-opacity="0.7"/>
</g>
<path d="M382.669 373.803L399.569 379.903C401.356 380.404 404.883 377.158 404.727 375.159L399.714 310.899C399.512 308.304 397.824 306.133 395.505 305.484L376.782 301.061C374.995 300.56 370.499 302.886 370.654 304.886L378.46 368.389C378.662 370.984 380.351 373.156 382.669 373.803Z" stroke="#263148" stroke-miterlimit="10" stroke-linecap="round" stroke-linejoin="round"/>
<path d="M379.886 375.387L398.609 379.81C400.396 380.31 402.102 378.741 401.945 376.742L396.932 312.482C396.729 309.887 395.041 307.716 392.723 307.067L374 302.644C372.213 302.144 370.507 303.713 370.664 305.712L375.678 369.972C375.88 372.567 377.568 374.739 379.886 375.387Z" fill="#E4B408" stroke="#263148" stroke-miterlimit="10" stroke-linecap="round" stroke-linejoin="round"/>
<path opacity="0.3" d="M390.268 324.373L393.288 325.087C393.576 325.168 393.851 324.915 393.826 324.592L393.017 314.228C392.985 313.81 392.711 313.46 392.339 313.356L389.319 312.642C389.031 312.561 388.756 312.814 388.781 313.137L389.59 323.501C389.622 323.919 389.894 324.269 390.268 324.373Z" fill="black" fill-opacity="0.7"/>
<path d="M363.934 356.586C363.206 347.576 370.746 334.054 375.756 334.054C380.767 334.054 396.04 346.845 396.04 346.845C401.948 351.504 399.021 355.939 399.021 355.939C402.498 358.439 403.447 361.819 401.861 363.386C400.085 365.14 395.219 363.386 395.219 363.386C395.219 363.386 400.283 367.414 399.021 369.391C396.04 374.066 386.225 367.898 386.225 367.898C386.225 367.898 391.921 371.984 391.594 372.76C389.446 377.863 380.145 371.915 380.145 371.915L373.607 375.558C373.607 375.558 373.68 381.58 367.651 381.67" fill="white"/>
<path d="M363.934 356.586C363.206 347.576 370.746 334.054 375.756 334.054C380.767 334.054 396.04 346.845 396.04 346.845C401.948 351.504 399.021 355.939 399.021 355.939C402.498 358.439 403.447 361.819 401.861 363.386C400.085 365.14 395.219 363.386 395.219 363.386C395.219 363.386 400.283 367.414 399.021 369.391C396.04 374.066 386.225 367.898 386.225 367.898C386.225 367.898 391.921 371.984 391.594 372.76C389.446 377.863 380.145 371.915 380.145 371.915L373.607 375.558C373.607 375.558 373.68 381.58 367.651 381.67" stroke="#263148" stroke-miterlimit="10" stroke-linecap="round" stroke-linejoin="round"/>
<path d="M399.023 355.937C399.023 355.937 384.729 345.89 382.928 345.618C381.126 345.346 374.505 343.781 374.505 343.781" fill="white"/>
<path d="M399.023 355.937C399.023 355.937 384.729 345.89 382.928 345.618C381.126 345.346 374.505 343.781 374.505 343.781" stroke="#263148" stroke-miterlimit="10" stroke-linecap="round" stroke-linejoin="round"/>
<path d="M395.22 363.384C395.22 363.384 383.61 356.862 381.484 356.862C379.252 356.862 371.999 355.081 371.999 355.081" fill="white"/>
<path d="M395.22 363.384C395.22 363.384 383.61 356.862 381.484 356.862C379.252 356.862 371.999 355.081 371.999 355.081" stroke="#263148" stroke-miterlimit="10" stroke-linecap="round" stroke-linejoin="round"/>
<path d="M386.227 367.895C386.227 367.895 383.14 365.565 381.931 365.142C380.723 364.719 373.608 365.142 373.608 365.142" fill="white"/>
<path d="M386.227 367.895C386.227 367.895 383.14 365.565 381.931 365.142C380.723 364.719 373.608 365.142 373.608 365.142" stroke="#263148" stroke-miterlimit="10" stroke-linecap="round" stroke-linejoin="round"/>
<path d="M531.752 469.013C531.752 469.013 540.771 463.497 548.831 442.872C556.89 422.247 559.193 424.336 559.193 424.336C559.193 424.336 576.849 414.912 585.292 412.734C593.735 410.556 609.088 412.734 609.088 412.734C609.088 412.734 596.039 454.062 582.605 480.954C569.172 507.844 558.464 523.727 551.331 525.357C544.196 526.988 531.752 469.013 531.752 469.013Z" fill="white" stroke="#263148" stroke-miterlimit="10" stroke-linecap="round" stroke-linejoin="round"/>
<path d="M584.141 355.166C584.141 355.166 519.905 392.39 501.337 392.184C482.768 391.978 471.205 357.41 471.205 357.41C471.205 357.41 505.543 356.577 501.555 338.718C501.497 338.418 501.424 338.085 501.337 337.768C499.693 331.531 493.391 320.607 491.048 316.68C490.495 315.746 490.161 315.208 490.161 315.208L540.993 273.919C538.044 315.669 543.693 333.969 547.148 340.835C553.07 352.606 584.141 355.166 584.141 355.166Z" fill="white" stroke="#263148" stroke-miterlimit="10" stroke-linecap="round" stroke-linejoin="round"/>
<path d="M526.571 297.32C526.571 297.32 515.977 329.965 501.555 338.72C501.497 338.419 501.424 338.087 501.337 337.77C499.693 331.532 493.391 320.608 491.048 316.682L526.571 297.32Z" fill="#263148"/>
<path d="M504.55 382.329C504.55 382.329 508.148 374.776 513.522 373.876C518.895 372.977 533.68 372.833 561.023 367.895" stroke="#263148" stroke-miterlimit="10" stroke-linecap="round" stroke-linejoin="round"/>
<path d="M496.306 382.329C496.306 382.329 493.995 376.446 493.396 373.876C492.796 371.307 478.494 368.082 473.747 363.85" stroke="#263148" stroke-miterlimit="10" stroke-linecap="round" stroke-linejoin="round"/>
<path d="M457.425 205.192C448.021 216.359 445.205 252.778 449.907 268.436C449.907 268.436 473.492 272.115 478.961 267.497C484.43 262.877 457.425 205.192 457.425 205.192Z" fill="#263148"/>
<path d="M546.144 278.769C548.416 267.858 560.449 214.975 532.11 191.574C503.77 168.173 469.217 199.381 464.372 206.744C444.836 236.44 453.49 260.058 457.147 274.284C460.804 288.511 458.975 305.76 477.259 329.458C484.942 339.417 498.766 334.116 512.379 323.811C520.548 317.629 532.036 306.77 532.327 296.306" fill="white"/>
<path d="M546.144 278.769C548.416 267.858 560.449 214.975 532.11 191.574C503.77 168.173 469.217 199.381 464.372 206.744C444.836 236.44 453.49 260.058 457.147 274.284C460.804 288.511 458.975 305.76 477.259 329.458C484.942 339.417 498.766 334.116 512.379 323.811C520.548 317.629 532.036 306.77 532.327 296.306" stroke="#263148" stroke-miterlimit="10" stroke-linecap="round" stroke-linejoin="round"/>
<path d="M481.378 255.582C481.378 255.582 496.725 252.609 505.415 258.532" stroke="#263148" stroke-miterlimit="10" stroke-linecap="round" stroke-linejoin="round"/>
<path d="M497.607 271.735C497.996 274.295 497.166 276.575 495.755 276.828C494.343 277.082 492.883 275.212 492.496 272.652C492.108 270.092 492.937 267.812 494.349 267.559C495.759 267.306 497.219 269.175 497.607 271.735Z" fill="#263148"/>
<path d="M466.929 271.735C467.318 274.295 466.488 276.575 465.077 276.828C463.665 277.082 462.205 275.212 461.817 272.652C461.428 270.092 462.258 267.812 463.669 267.559C465.081 267.306 466.541 269.175 466.929 271.735Z" fill="#263148"/>
<path d="M464.372 255.753C464.372 255.753 455.903 252.449 453.168 256.684" stroke="#263148" stroke-miterlimit="10" stroke-linecap="round" stroke-linejoin="round"/>
<path d="M469.72 270.472C470.585 274.074 463.92 290.358 464.374 291.767C464.828 293.176 468.137 295.683 474.038 296.308" stroke="#263148" stroke-miterlimit="10" stroke-linecap="round" stroke-linejoin="round"/>
<path d="M476.949 307.501C476.949 307.501 489.231 307.501 496.306 302.072" stroke="#263148" stroke-miterlimit="10" stroke-linecap="round" stroke-linejoin="round"/>
<path d="M460.941 197.349C460.941 197.349 447.988 210.431 456.335 236.18C458.975 244.322 464.372 250.508 464.372 250.508C473.03 245.198 477.347 253.476 482.529 250.777C487.71 248.079 495.964 253.809 501.337 252.666C506.71 251.524 512.467 252.761 516.496 256.682C520.526 260.606 520.526 269.196 526.571 273.355C526.571 273.355 530.093 259.906 537.51 261.858C544.926 263.808 538.373 287.224 538.373 287.224C538.373 287.224 552.191 270.939 555.069 244.007C557.948 217.076 548.202 193.589 531.753 188.578C531.753 188.578 526.284 176.991 507.574 178.87C488.863 180.751 471.909 179.54 460.941 197.349Z" fill="#263148"/>
<path d="M531.752 265.304C531.752 265.304 538.66 246.879 548.735 254.526C558.809 262.173 546.719 285.659 541.826 291.611C536.932 297.56 535.493 290.984 534.918 289.106" fill="white"/>
<path d="M531.752 265.304C531.752 265.304 538.66 246.879 548.735 254.526C558.809 262.173 546.719 285.659 541.826 291.611C536.932 297.56 535.493 290.984 534.918 289.106" stroke="#263148" stroke-miterlimit="10" stroke-linecap="round" stroke-linejoin="round"/>
<g opacity="0.2">
<path d="M465.477 210.741C465.756 206.126 467.056 201.656 469.192 197.663" stroke="white" stroke-miterlimit="10" stroke-linecap="round" stroke-linejoin="round"/>
<path d="M476.949 242.443C470.714 234.872 465.973 224.697 465.461 214.464" stroke="white" stroke-miterlimit="10" stroke-linecap="round" stroke-linejoin="round"/>
<path d="M490.167 229.721C493.69 235.928 498.624 241.183 504.55 244.636" stroke="white" stroke-miterlimit="10" stroke-linecap="round" stroke-linejoin="round"/>
<path d="M486.627 197.663C481.854 206 484.6 217.977 488.321 226.111" stroke="white" stroke-miterlimit="10" stroke-linecap="round" stroke-linejoin="round"/>
<path d="M535.134 245.109C538.738 247.133 542.524 248.776 546.432 249.96" stroke="white" stroke-miterlimit="10" stroke-linecap="round" stroke-linejoin="round"/>
<path d="M501.337 208.623C508.444 222.59 519.451 235.241 532.102 243.293" stroke="white" stroke-miterlimit="10" stroke-linecap="round" stroke-linejoin="round"/>
</g>
<path d="M428.935 345.954C428.935 345.954 424.557 345.958 424.174 349.425C423.79 352.893 430.292 357.411 430.292 357.411" fill="white"/>
<path d="M428.935 345.954C428.935 345.954 424.557 345.958 424.174 349.425C423.79 352.893 430.292 357.411 430.292 357.411" stroke="#263148" stroke-miterlimit="10" stroke-linecap="round" stroke-linejoin="round"/>
<path d="M551.568 471.899C541.733 455.58 527.844 445.37 515.44 427.258C498.508 402.537 487.042 380.383 487.042 380.383L473.876 353.518C473.876 353.518 457.757 332.37 451.233 329.791C444.709 327.212 409.015 325.959 409.015 325.959C409.015 325.959 407.542 330.164 413.076 332.237C418.61 334.309 435.483 336.086 435.483 336.086C435.483 336.086 430.507 338.424 429.356 340.333C428.205 342.243 429.356 357.984 431.658 361.179C433.96 364.374 442.788 367.296 442.788 367.296C442.788 367.296 443.955 378.33 452.583 383.879C461.211 389.426 465.433 389.426 465.433 389.426C465.433 389.426 473.564 404.436 476.949 415.15C484.172 438.006 502.578 489.948 515.824 508.68C531.514 530.871 551.849 531.696 559.199 517.592" fill="white"/>
<path d="M551.568 471.899C541.733 455.58 527.844 445.37 515.44 427.258C498.508 402.537 487.042 380.383 487.042 380.383L473.876 353.518C473.876 353.518 457.757 332.37 451.233 329.791C444.709 327.212 409.015 325.959 409.015 325.959C409.015 325.959 407.542 330.164 413.076 332.237C418.61 334.309 435.483 336.086 435.483 336.086C435.483 336.086 430.507 338.424 429.356 340.333C428.205 342.243 429.356 357.984 431.658 361.179C433.96 364.374 442.788 367.296 442.788 367.296C442.788 367.296 443.955 378.33 452.583 383.879C461.211 389.426 465.433 389.426 465.433 389.426C465.433 389.426 473.564 404.436 476.949 415.15C484.172 438.006 502.578 489.948 515.824 508.68C531.514 530.871 551.849 531.696 559.199 517.592" stroke="#263148" stroke-miterlimit="10" stroke-linecap="round" stroke-linejoin="round"/>
<path d="M450.512 344.437C450.512 344.437 437.992 346.003 436.408 347.255C434.825 348.507 435.58 358.222 436.408 361.63C437.236 365.039 439.14 365.897 439.14 365.897" stroke="#263148" stroke-miterlimit="10" stroke-linecap="round" stroke-linejoin="round"/>
<path d="M445.419 336.391C445.419 336.391 433.097 339.738 432.379 341.46C431.66 343.183 430.795 350.595 431.802 355.893C432.809 361.19 433.1 362.843 434.983 363.85" stroke="#263148" stroke-miterlimit="10" stroke-linecap="round" stroke-linejoin="round"/>
<path d="M435.483 336.087C435.483 336.087 438.854 334.572 440.87 334.103" stroke="#263148" stroke-miterlimit="10" stroke-linecap="round" stroke-linejoin="round"/>
<path d="M442.998 355.166C442.998 355.166 445.476 358.945 451.423 359.363C451.423 359.363 448.73 370.637 453.531 377.943" stroke="#263148" stroke-miterlimit="10" stroke-linecap="round" stroke-linejoin="round"/>
<path d="M445.419 357.411C445.419 357.411 442.631 359.865 442.998 361.181" stroke="#263148" stroke-miterlimit="10" stroke-linecap="round" stroke-linejoin="round"/>
<path d="M559.193 424.336C559.193 424.336 583.988 412.56 587.518 411.767C591.049 410.974 617.917 412.417 617.917 412.417C617.917 412.417 614.109 416.681 606.61 420.3C606.61 420.3 606.019 414.943 599.301 414.316C592.584 413.689 559.193 424.336 559.193 424.336Z" fill="#263148"/>
</g>
<defs>
<clipPath id="clip0_69_3721">
<rect width="650" height="650" fill="white"/>
</clipPath>
</defs>
</svg>
