<svg width="20" height="20" viewBox="0 0 20 20" fill="none" xmlns="http://www.w3.org/2000/svg">
<path d="M10 8.33335C11.841 8.33335 13.3334 6.84097 13.3334 5.00002C13.3334 3.15907 11.841 1.66669 10 1.66669C8.15907 1.66669 6.66669 3.15907 6.66669 5.00002C6.66669 6.84097 8.15907 8.33335 10 8.33335Z" stroke="#394867" stroke-width="1.5"/>
<path d="M16.6646 15C16.6666 14.8631 16.6666 14.7241 16.6666 14.5833C16.6666 12.5122 13.6819 10.8333 9.99998 10.8333C6.31808 10.8333 3.33331 12.5122 3.33331 14.5833C3.33331 16.6544 3.33331 18.3333 9.99998 18.3333C11.8591 18.3333 13.1998 18.2027 14.1666 17.9695" stroke="#394867" stroke-width="1.5" stroke-linecap="round"/>
</svg>
